<svg width="145" height="84" viewBox="0 0 145 84" fill="none" xmlns="http://www.w3.org/2000/svg">
<path d="M68.4238 12.5918C71.5488 16.3516 73.8682 20.7705 75.3818 25.8486C76.9443 30.8779 77.7256 36.1514 77.7256 41.6689C77.7256 48.3096 76.7734 54.2666 74.8691 59.54C72.9648 64.7646 70.3525 69.1104 67.0322 72.5771C63.6143 76.1416 59.5615 78.8271 54.874 80.6338C50.1865 82.4404 44.9619 83.3438 39.2002 83.3438C32.9014 83.3438 27.2861 82.2939 22.3545 80.1943C17.4229 78.0947 13.4189 75.2139 10.3428 71.5518C7.12012 67.7432 4.70312 63.2998 3.0918 58.2217C1.5293 53.0947 0.748047 47.5771 0.748047 41.6689C0.748047 35.8584 1.50488 30.5117 3.01855 25.6289C4.58105 20.7461 6.99805 16.3271 10.2695 12.3721C13.3945 8.56348 17.4229 5.56055 22.3545 3.36328C27.2861 1.16602 32.9258 0.0673828 39.2734 0.0673828C45.9629 0.0673828 51.7002 1.19043 56.4854 3.43652C61.2705 5.68262 65.25 8.73438 68.4238 12.5918ZM61.5391 41.6689C61.5391 30.0479 59.5371 21.0391 55.5332 14.6426C51.5781 8.24609 46.1826 5.04785 39.3467 5.04785C32.4131 5.04785 26.9443 8.24609 22.9404 14.6426C18.9365 21.0391 16.9346 30.0479 16.9346 41.6689C16.9346 52.7041 18.8389 61.5908 22.6475 68.3291C26.5049 75.0186 32.0225 78.3633 39.2002 78.3633C46.3779 78.3633 51.8955 75.0186 55.7529 68.3291C59.6104 61.5908 61.5391 52.7041 61.5391 41.6689ZM144.596 81H95.2305V75.7998C96.6953 75.7021 98.9658 75.5068 102.042 75.2139C105.167 74.8721 107.315 74.5303 108.487 74.1885C110.001 73.7002 111.148 72.9189 111.93 71.8447C112.76 70.7217 113.175 69.0615 113.175 66.8643V15.4482H94.9375V9.2959H98.9658C104.239 9.2959 108.951 8.31934 113.102 6.36621C117.301 4.41309 120.304 2.31348 122.11 0.0673828H128.189C128.043 3.24121 127.896 6.95215 127.75 11.2002C127.604 15.4482 127.53 19.2568 127.53 22.626V66.0586C127.53 67.7676 127.896 69.3057 128.629 70.6729C129.41 71.9912 130.509 72.9678 131.925 73.6025C133.194 74.1396 135.27 74.6279 138.15 75.0674C141.031 75.5068 143.18 75.751 144.596 75.7998V81Z" fill="#01996D" fill-opacity="0.2"/>
</svg>
